<svg xmlns="http://www.w3.org/2000/svg" xmlns:xlink="http://www.w3.org/1999/xlink" width="220" zoomAndPan="magnify" viewBox="0 0 165 82.499998" height="110" preserveAspectRatio="xMidYMid meet" version="1.0"><defs><clipPath id="03423b18e8"><path d="M 0.496094 0 L 164.503906 0 L 164.503906 82.003906 L 0.496094 82.003906 Z M 0.496094 0 " clip-rule="nonzero"/></clipPath><clipPath id="43451fecff"><path d="M 8.699219 44 L 24 44 L 24 64 L 8.699219 64 Z M 8.699219 44 " clip-rule="nonzero"/></clipPath><clipPath id="ae098b16fb"><path d="M 141 50 L 156.300781 50 L 156.300781 69.21875 L 141 69.21875 Z M 141 50 " clip-rule="nonzero"/></clipPath><clipPath id="3e2c6f7bc4"><path d="M 48 12.5625 L 62 12.5625 L 62 26 L 48 26 Z M 48 12.5625 " clip-rule="nonzero"/></clipPath></defs><g clip-path="url(#03423b18e8)"><path fill="#ffffff" d="M 0.496094 0 L 164.503906 0 L 164.503906 82.003906 L 0.496094 82.003906 Z M 0.496094 0 " fill-opacity="1" fill-rule="nonzero"/><path fill="#ffffff" d="M 0.496094 0 L 164.503906 0 L 164.503906 82.003906 L 0.496094 82.003906 Z M 0.496094 0 " fill-opacity="1" fill-rule="nonzero"/></g><g clip-path="url(#43451fecff)"><path fill="#263238" d="M 8.699219 45.019531 C 8.699219 44.839844 8.820312 44.742188 8.980469 44.742188 L 16.449219 44.742188 C 19.855469 44.742188 22.359375 46.15625 23.320312 49.128906 C 23.71875 50.367188 23.878906 51.445312 23.878906 54.355469 C 23.878906 57.25 23.699219 58.347656 23.320312 59.601562 C 22.359375 62.574219 19.855469 63.992188 16.449219 63.992188 L 8.980469 63.992188 C 8.820312 63.992188 8.699219 63.871094 8.699219 63.710938 Z M 13.867188 59.5625 L 15.367188 59.5625 C 17.128906 59.5625 18.089844 59.085938 18.550781 57.726562 C 18.734375 57.167969 18.832031 56.511719 18.832031 54.355469 C 18.832031 52.203125 18.710938 51.5625 18.550781 50.984375 C 18.089844 49.628906 17.128906 49.148438 15.367188 49.148438 L 13.867188 49.148438 C 13.746094 49.148438 13.707031 49.210938 13.707031 49.308594 L 13.707031 59.382812 C 13.707031 59.503906 13.765625 59.5625 13.867188 59.5625 Z M 13.867188 59.5625 " fill-opacity="1" fill-rule="nonzero"/></g><path fill="#263238" d="M 25.722656 63.972656 C 25.5625 63.972656 25.441406 63.851562 25.441406 63.691406 L 25.441406 50.464844 C 25.441406 50.285156 25.5625 50.1875 25.722656 50.1875 L 29.929688 50.1875 C 30.089844 50.1875 30.207031 50.304688 30.207031 50.464844 L 30.207031 51.683594 L 30.226562 51.683594 C 30.890625 50.464844 32.191406 49.847656 33.8125 49.847656 C 34.574219 49.847656 35.296875 50.046875 35.714844 50.386719 C 35.875 50.464844 35.917969 50.566406 35.855469 50.746094 L 34.234375 54.734375 C 34.113281 54.875 34.011719 54.855469 33.832031 54.753906 C 33.152344 54.335938 32.472656 54.136719 31.808594 54.214844 C 30.710938 54.296875 30.1875 55.152344 30.1875 56.628906 L 30.1875 63.671875 C 30.1875 63.851562 30.066406 63.953125 29.90625 63.953125 L 25.722656 63.953125 Z M 25.722656 63.972656 " fill-opacity="1" fill-rule="nonzero"/><path fill="#263238" d="M 35.894531 60.261719 C 35.617188 59.441406 35.433594 58.527344 35.433594 57.089844 C 35.433594 55.613281 35.617188 54.675781 35.855469 53.898438 C 36.71875 51.324219 38.960938 49.847656 42.042969 49.847656 C 45.347656 49.847656 47.492188 51.324219 48.292969 53.835938 C 48.574219 54.695312 48.753906 55.734375 48.753906 58.148438 C 48.753906 58.304688 48.632812 58.425781 48.433594 58.425781 L 40.222656 58.425781 C 40.101562 58.425781 40.0625 58.484375 40.0625 58.605469 C 40.082031 58.804688 40.121094 59.003906 40.183594 59.164062 C 40.503906 60.121094 41.523438 60.660156 42.84375 60.660156 C 44.046875 60.660156 45.070312 60.261719 45.949219 59.5625 C 46.128906 59.421875 46.230469 59.421875 46.371094 59.5625 L 48.394531 61.636719 C 48.535156 61.757812 48.511719 61.957031 48.375 62.058594 C 46.929688 63.453125 44.828125 64.3125 42.34375 64.3125 C 38.960938 64.3125 36.71875 62.816406 35.894531 60.261719 Z M 43.988281 55.53125 C 44.105469 55.53125 44.167969 55.472656 44.167969 55.375 C 44.167969 55.015625 44.148438 54.753906 44.046875 54.515625 C 43.785156 53.71875 43.105469 53.277344 42.125 53.277344 C 41.164062 53.277344 40.441406 53.738281 40.203125 54.515625 C 40.140625 54.734375 40.082031 54.996094 40.082031 55.375 C 40.082031 55.492188 40.140625 55.53125 40.242188 55.53125 Z M 43.988281 55.53125 " fill-opacity="1" fill-rule="nonzero"/><path fill="#263238" d="M 58.027344 63.972656 C 57.867188 63.972656 57.746094 63.851562 57.746094 63.691406 L 57.746094 62.894531 L 57.726562 62.894531 C 56.984375 63.753906 55.824219 64.3125 54 64.3125 C 51.636719 64.3125 49.515625 63.035156 49.515625 60.0625 C 49.515625 56.96875 51.957031 55.53125 55.402344 55.53125 L 57.585938 55.53125 C 57.707031 55.53125 57.765625 55.472656 57.765625 55.375 L 57.765625 55.015625 C 57.765625 53.996094 57.226562 53.578125 55.101562 53.578125 C 53.859375 53.578125 52.777344 53.917969 52.117188 54.375 C 51.976562 54.457031 51.839844 54.457031 51.757812 54.296875 L 50.277344 51.683594 C 50.195312 51.484375 50.214844 51.34375 50.355469 51.222656 C 51.597656 50.367188 53.460938 49.867188 55.722656 49.867188 C 60.550781 49.867188 62.253906 51.484375 62.253906 55.015625 L 62.253906 63.710938 C 62.253906 63.890625 62.132812 63.992188 61.972656 63.992188 L 58.027344 63.992188 Z M 57.746094 59.441406 L 57.746094 58.585938 C 57.746094 58.464844 57.6875 58.40625 57.566406 58.40625 L 55.882812 58.40625 C 54.601562 58.40625 53.941406 58.863281 53.941406 59.703125 C 53.941406 60.460938 54.480469 60.898438 55.5625 60.898438 C 57.066406 60.917969 57.746094 60.441406 57.746094 59.441406 Z M 57.746094 59.441406 " fill-opacity="1" fill-rule="nonzero"/><path fill="#263238" d="M 86.746094 60.320312 C 86.425781 59.304688 86.324219 58.304688 86.324219 57.089844 C 86.324219 55.851562 86.445312 54.855469 86.746094 53.835938 C 87.605469 51.203125 90.011719 49.847656 93.054688 49.847656 C 96.097656 49.847656 98.480469 51.203125 99.363281 53.835938 C 99.683594 54.855469 99.785156 55.851562 99.785156 57.089844 C 99.785156 58.304688 99.664062 59.304688 99.363281 60.320312 C 98.480469 62.953125 96.097656 64.3125 93.054688 64.3125 C 90.011719 64.3125 87.585938 62.953125 86.746094 60.320312 Z M 94.757812 59.242188 C 94.898438 58.726562 94.957031 58.246094 94.957031 57.089844 C 94.957031 55.933594 94.898438 55.414062 94.757812 54.914062 C 94.476562 54.117188 93.875 53.757812 93.054688 53.757812 C 92.234375 53.757812 91.632812 54.117188 91.351562 54.914062 C 91.210938 55.433594 91.152344 55.933594 91.152344 57.089844 C 91.152344 58.246094 91.210938 58.726562 91.351562 59.242188 C 91.632812 60.042969 92.234375 60.402344 93.054688 60.402344 C 93.875 60.402344 94.476562 60.042969 94.757812 59.242188 Z M 94.757812 59.242188 " fill-opacity="1" fill-rule="nonzero"/><path fill="#263238" d="M 109.496094 63.972656 C 109.335938 63.972656 109.214844 63.851562 109.214844 63.691406 L 109.214844 55.832031 C 109.214844 54.617188 108.675781 53.816406 107.535156 53.816406 C 106.453125 53.816406 105.832031 54.574219 105.832031 55.832031 L 105.832031 63.691406 C 105.832031 63.871094 105.710938 63.972656 105.550781 63.972656 L 101.347656 63.972656 C 101.1875 63.972656 101.066406 63.851562 101.066406 63.691406 L 101.066406 50.464844 C 101.066406 50.285156 101.1875 50.1875 101.347656 50.1875 L 105.550781 50.1875 C 105.710938 50.1875 105.832031 50.304688 105.832031 50.464844 L 105.832031 51.464844 L 105.851562 51.464844 C 106.472656 50.566406 107.675781 49.847656 109.398438 49.847656 C 112.5625 49.847656 113.984375 51.960938 113.984375 54.996094 L 113.984375 63.691406 C 113.984375 63.871094 113.863281 63.972656 113.703125 63.972656 Z M 109.496094 63.972656 " fill-opacity="1" fill-rule="nonzero"/><path fill="#263238" d="M 124.679688 63.972656 C 124.476562 63.972656 124.335938 63.890625 124.257812 63.691406 L 121.554688 58.367188 L 120.53125 59.722656 L 120.53125 63.691406 C 120.53125 63.871094 120.410156 63.972656 120.25 63.972656 L 116.066406 63.972656 C 115.90625 63.972656 115.785156 63.851562 115.785156 63.691406 L 115.785156 45.019531 C 115.785156 44.839844 115.90625 44.742188 116.066406 44.742188 L 120.25 44.742188 C 120.433594 44.742188 120.53125 44.859375 120.53125 45.019531 L 120.53125 54.695312 L 123.777344 50.484375 C 123.957031 50.285156 124.097656 50.207031 124.316406 50.207031 L 128.664062 50.207031 C 128.84375 50.207031 128.882812 50.386719 128.785156 50.484375 L 124.71875 55.195312 L 129.34375 63.710938 C 129.425781 63.851562 129.363281 63.992188 129.203125 63.992188 L 124.679688 63.992188 Z M 124.679688 63.972656 " fill-opacity="1" fill-rule="nonzero"/><path fill="#263238" d="M 129.222656 60.261719 C 128.945312 59.441406 128.761719 58.527344 128.761719 57.089844 C 128.761719 55.613281 128.945312 54.675781 129.183594 53.898438 C 130.046875 51.324219 132.289062 49.847656 135.371094 49.847656 C 138.675781 49.847656 140.820312 51.324219 141.621094 53.835938 C 141.902344 54.695312 142.082031 55.734375 142.082031 58.148438 C 142.082031 58.304688 141.960938 58.425781 141.761719 58.425781 L 133.550781 58.425781 C 133.429688 58.425781 133.390625 58.484375 133.390625 58.605469 C 133.410156 58.804688 133.449219 59.003906 133.511719 59.164062 C 133.832031 60.121094 134.851562 60.660156 136.171875 60.660156 C 137.375 60.660156 138.398438 60.261719 139.277344 59.5625 C 139.457031 59.421875 139.558594 59.421875 139.699219 59.5625 L 141.722656 61.636719 C 141.863281 61.757812 141.839844 61.957031 141.699219 62.058594 C 140.257812 63.453125 138.15625 64.3125 135.671875 64.3125 C 132.289062 64.3125 130.046875 62.816406 129.222656 60.261719 Z M 137.335938 55.53125 C 137.457031 55.53125 137.515625 55.472656 137.515625 55.375 C 137.515625 55.015625 137.496094 54.753906 137.394531 54.515625 C 137.136719 53.71875 136.453125 53.277344 135.453125 53.277344 C 134.492188 53.277344 133.769531 53.738281 133.53125 54.515625 C 133.46875 54.734375 133.410156 54.996094 133.410156 55.375 C 133.410156 55.492188 133.46875 55.53125 133.570312 55.53125 Z M 137.335938 55.53125 " fill-opacity="1" fill-rule="nonzero"/><g clip-path="url(#ae098b16fb)"><path fill="#263238" d="M 144.183594 69.078125 C 144.003906 69.078125 143.902344 68.960938 143.902344 68.800781 L 143.902344 65.46875 C 143.902344 65.289062 144.023438 65.1875 144.183594 65.1875 L 144.886719 65.1875 C 145.785156 65.1875 146.308594 64.910156 146.585938 64.03125 L 146.910156 63.152344 L 141.699219 50.507812 C 141.640625 50.367188 141.722656 50.226562 141.902344 50.226562 L 146.367188 50.226562 C 146.527344 50.226562 146.648438 50.347656 146.707031 50.507812 L 149.089844 57.410156 L 149.152344 57.410156 L 151.375 50.507812 C 151.433594 50.328125 151.554688 50.226562 151.734375 50.226562 L 156.082031 50.226562 C 156.28125 50.226562 156.339844 50.367188 156.28125 50.507812 L 150.292969 65.527344 C 149.210938 68.28125 147.910156 69.058594 145.226562 69.058594 L 144.183594 69.058594 Z M 144.183594 69.078125 " fill-opacity="1" fill-rule="nonzero"/></g><path fill="#d4e157" d="M 87.628906 27.023438 C 84.542969 27.023438 82.378906 29.558594 82.257812 32.371094 C 82.199219 34.128906 81.058594 36.140625 78.976562 35.046875 C 74.308594 32.589844 70.082031 37.859375 69.523438 38.15625 C 68.839844 38.535156 68.402344 37.757812 68.160156 37.398438 C 67.597656 36.5 66.058594 35.425781 64.316406 36.5625 C 62.332031 37.859375 62.550781 38.417969 62.914062 38.597656 C 63.273438 38.777344 62.191406 39.3125 62.230469 39.691406 C 62.3125 40.351562 62.253906 42.148438 63.875 41.6875 C 64.957031 41.367188 65.65625 42.207031 65.65625 42.945312 C 65.65625 43.464844 65.097656 44.28125 63.332031 44.921875 C 61.710938 45.5 60.449219 45.699219 58.808594 46.796875 C 58.226562 47.175781 57.605469 46.996094 57.246094 47.15625 C 56.523438 47.472656 55.722656 48.472656 56.105469 48.96875 C 56.222656 49.128906 57.425781 47.851562 58.125 48.152344 C 58.328125 48.230469 58.246094 48.570312 57.945312 48.890625 C 57.707031 49.148438 57.6875 49.367188 57.765625 49.527344 C 57.847656 49.667969 58.648438 48.851562 58.90625 48.472656 C 59.046875 48.25 59.109375 48.171875 59.546875 48.152344 C 61.992188 48.03125 64.875 47.914062 66.238281 46.535156 C 66.679688 46.078125 67.339844 44.363281 67.761719 44.222656 C 68.242188 44.082031 68.839844 44.621094 68.882812 47.933594 C 68.902344 48.832031 69.742188 49.128906 69.722656 50.585938 C 69.34375 50.84375 69.042969 51.144531 68.820312 51.464844 L 68.800781 51.464844 L 68.800781 50.464844 C 68.800781 50.285156 68.679688 50.1875 68.519531 50.1875 L 64.316406 50.1875 C 64.15625 50.1875 64.035156 50.304688 64.035156 50.464844 L 64.035156 63.691406 C 64.035156 63.871094 64.15625 63.972656 64.316406 63.972656 L 68.519531 63.972656 C 68.699219 63.972656 68.800781 63.851562 68.800781 63.691406 L 68.800781 55.832031 C 68.800781 54.59375 69.421875 53.816406 70.503906 53.816406 C 71.644531 53.816406 72.1875 54.617188 72.1875 55.832031 L 72.1875 63.691406 C 72.1875 63.871094 72.304688 63.972656 72.464844 63.972656 L 76.671875 63.972656 C 76.851562 63.972656 76.953125 63.851562 76.953125 63.691406 L 76.953125 55.832031 C 76.953125 54.59375 77.574219 53.816406 78.632812 53.816406 C 79.777344 53.816406 80.335938 54.617188 80.335938 55.832031 L 80.335938 63.691406 C 80.335938 63.871094 80.457031 63.972656 80.617188 63.972656 L 84.824219 63.972656 C 84.984375 63.972656 85.105469 63.851562 85.105469 63.691406 L 85.105469 54.996094 C 85.105469 54.414062 85.042969 53.898438 84.941406 53.398438 C 84.941406 53.359375 84.921875 53.320312 84.921875 53.277344 C 84.902344 53.160156 84.863281 53.039062 84.824219 52.941406 C 84.761719 52.71875 84.683594 52.5 84.582031 52.300781 C 84.441406 51.941406 84.324219 51.582031 84.324219 51.042969 C 84.324219 50.445312 83.960938 48.113281 83.902344 47.691406 C 83.863281 47.292969 83.722656 47.035156 83 46.894531 C 82.539062 46.796875 79.355469 44.78125 80.71875 42.804688 C 82.097656 40.808594 81.800781 38.996094 81.339844 37.71875 C 81.078125 37.019531 82.019531 36.859375 83.121094 35.304688 C 83.742188 34.445312 83.941406 33.449219 84.023438 32.351562 C 84.140625 30.355469 85.503906 28.800781 87.585938 28.800781 C 90.332031 28.800781 91.230469 31.335938 91.152344 32.351562 C 91.089844 33.230469 90.871094 33.570312 90.25 33.6875 C 89.648438 33.808594 88.910156 33.128906 88.910156 32.332031 C 88.910156 31.992188 88.609375 31.695312 88.226562 31.695312 C 87.925781 31.695312 87.585938 31.953125 87.585938 32.351562 C 87.585938 33.769531 88.75 35.023438 90.269531 35.023438 C 91.53125 35.023438 92.953125 34.285156 92.953125 32.351562 C 92.996094 29.679688 90.890625 27.023438 87.628906 27.023438 Z M 71.445312 46.695312 C 69.78125 44.160156 72.464844 43.503906 72.707031 44.382812 C 72.90625 45.121094 72.566406 47.214844 73.246094 49.707031 C 73.265625 49.769531 73.289062 49.847656 73.308594 49.90625 C 73.027344 49.867188 72.707031 49.847656 72.386719 49.847656 C 72.164062 49.847656 71.964844 49.867188 71.765625 49.886719 C 72.003906 48.03125 71.925781 47.453125 71.445312 46.695312 Z M 82.640625 49.6875 C 82.640625 49.90625 82.640625 50.105469 82.621094 50.285156 C 81.980469 49.988281 81.199219 49.828125 80.277344 49.828125 C 78.355469 49.828125 76.992188 50.507812 76.050781 51.523438 C 76.03125 51.382812 75.949219 51.144531 75.789062 50.707031 C 75.390625 49.648438 75.929688 47.433594 75.992188 46.714844 C 76.070312 45.976562 76.070312 45.339844 75.492188 45.019531 C 74.96875 44.742188 76.632812 42.484375 76.953125 42.167969 C 77.113281 42.007812 77.59375 41.96875 77.492188 43.023438 C 77.351562 44.582031 76.550781 45.957031 78.234375 46.875 C 79.917969 47.832031 82.640625 48.25 82.640625 49.6875 Z M 82.640625 49.6875 " fill-opacity="1" fill-rule="nonzero"/><path fill="#d4e157" d="M 62.230469 36.023438 C 62.230469 37.257812 61.230469 38.238281 60.007812 38.238281 C 58.765625 38.238281 57.765625 37.238281 57.765625 36.023438 C 57.765625 34.785156 58.765625 33.808594 60.007812 33.808594 C 61.230469 33.789062 62.230469 34.785156 62.230469 36.023438 Z M 62.230469 36.023438 " fill-opacity="1" fill-rule="nonzero"/><path fill="#d4e157" d="M 60.007812 29.859375 C 60.007812 31.832031 58.40625 33.410156 56.445312 33.410156 C 54.460938 33.410156 52.878906 31.8125 52.878906 29.859375 C 52.878906 27.882812 54.480469 26.308594 56.445312 26.308594 C 58.40625 26.289062 60.007812 27.882812 60.007812 29.859375 Z M 60.007812 29.859375 " fill-opacity="1" fill-rule="nonzero"/><g clip-path="url(#3e2c6f7bc4)"><path fill="#d4e157" d="M 61.371094 18.945312 C 61.371094 22.378906 58.566406 25.171875 55.121094 25.171875 C 51.679688 25.171875 48.875 22.378906 48.875 18.945312 C 48.875 15.515625 51.679688 12.722656 55.121094 12.722656 C 58.566406 12.703125 61.371094 15.496094 61.371094 18.945312 Z M 61.371094 18.945312 " fill-opacity="1" fill-rule="nonzero"/></g></svg>