<svg xmlns="http://www.w3.org/2000/svg" xmlns:xlink="http://www.w3.org/1999/xlink" width="220" zoomAndPan="magnify" viewBox="0 0 165 82.499998" height="110" preserveAspectRatio="xMidYMid meet" version="1.0"><defs><clipPath id="43cbdd77c6"><path d="M 0.496094 0 L 164.503906 0 L 164.503906 82.003906 L 0.496094 82.003906 Z M 0.496094 0 " clip-rule="nonzero"/></clipPath></defs><g clip-path="url(#43cbdd77c6)"><path fill="#ffffff" d="M 0.496094 0 L 164.503906 0 L 164.503906 89.457031 L 0.496094 89.457031 Z M 0.496094 0 " fill-opacity="1" fill-rule="nonzero"/><path fill="#ffffff" d="M 0.496094 0 L 164.503906 0 L 164.503906 82.003906 L 0.496094 82.003906 Z M 0.496094 0 " fill-opacity="1" fill-rule="nonzero"/><path fill="#ffffff" d="M 0.496094 0 L 164.503906 0 L 164.503906 82.003906 L 0.496094 82.003906 Z M 0.496094 0 " fill-opacity="1" fill-rule="nonzero"/></g><path fill="#171321" d="M 67.957031 37.027344 L 72.949219 37.027344 C 72.113281 31.703125 67.519531 28 61.542969 28 C 54.464844 28 49.15625 33.214844 49.15625 41.949219 C 49.15625 50.53125 54.226562 55.851562 61.6875 55.851562 C 68.378906 55.851562 73.171875 51.535156 73.171875 44.546875 L 73.171875 41.289062 L 62.199219 41.289062 L 62.199219 45.128906 L 68.433594 45.128906 C 68.351562 48.996094 65.777344 51.441406 61.710938 51.441406 C 57.183594 51.441406 54.082031 48.042969 54.082031 41.898438 C 54.082031 35.792969 57.238281 32.40625 61.605469 32.40625 C 64.867188 32.40625 67.097656 34.152344 67.957031 37.027344 Z M 67.957031 37.027344 " fill-opacity="1" fill-rule="nonzero"/><path fill="#171321" d="M 76.46875 55.480469 L 81.25 55.480469 L 81.25 35.15625 L 76.46875 35.15625 Z M 78.878906 31.925781 C 80.398438 31.925781 81.640625 30.761719 81.640625 29.332031 C 81.640625 27.902344 80.398438 26.722656 78.878906 26.722656 C 77.363281 26.722656 76.109375 27.886719 76.109375 29.332031 C 76.109375 30.777344 77.339844 31.925781 78.871094 31.925781 Z M 78.878906 31.925781 " fill-opacity="1" fill-rule="nonzero"/><path fill="#171321" d="M 95.558594 35.15625 L 91.558594 35.15625 L 91.558594 30.273438 L 86.78125 30.273438 L 86.78125 35.15625 L 83.902344 35.15625 L 83.902344 38.863281 L 86.78125 38.863281 L 86.78125 50.171875 C 86.753906 53.996094 89.527344 55.882812 93.117188 55.769531 C 94.078125 55.75 95.015625 55.59375 95.929688 55.292969 L 95.121094 51.546875 C 94.664062 51.664062 94.199219 51.726562 93.726562 51.734375 C 92.523438 51.734375 91.558594 51.308594 91.558594 49.375 L 91.558594 38.851562 L 95.558594 38.851562 Z M 95.558594 35.15625 " fill-opacity="1" fill-rule="nonzero"/><path fill="#171321" d="M 99.257812 55.480469 L 116.0625 55.480469 L 116.0625 51.363281 L 104.15625 51.363281 L 104.15625 28.367188 L 99.257812 28.367188 Z M 99.257812 55.480469 " fill-opacity="1" fill-rule="nonzero"/><path fill="#171321" d="M 125.214844 55.890625 C 128.398438 55.890625 130.296875 54.394531 131.167969 52.6875 L 131.328125 52.6875 L 131.328125 55.480469 L 135.929688 55.480469 L 135.929688 41.871094 C 135.929688 36.496094 131.558594 34.882812 127.691406 34.882812 C 123.425781 34.882812 120.152344 36.789062 119.097656 40.492188 L 123.558594 41.132812 C 124.03125 39.742188 125.378906 38.550781 127.722656 38.550781 C 129.941406 38.550781 131.15625 39.6875 131.15625 41.6875 L 131.15625 41.765625 C 131.15625 43.140625 129.714844 43.210938 126.140625 43.59375 C 122.207031 44.015625 118.445312 45.195312 118.445312 49.773438 C 118.429688 53.773438 121.347656 55.890625 125.214844 55.890625 Z M 126.789062 52.375 C 124.792969 52.375 123.367188 51.460938 123.367188 49.703125 C 123.367188 47.859375 124.964844 47.09375 127.09375 46.789062 C 128.347656 46.617188 130.855469 46.300781 131.472656 45.796875 L 131.472656 48.191406 C 131.488281 50.449219 129.664062 52.371094 126.789062 52.371094 Z M 126.789062 52.375 " fill-opacity="1" fill-rule="nonzero"/><path fill="#171321" d="M 139.445312 55.480469 L 144.148438 55.480469 L 144.148438 52.277344 L 144.421875 52.277344 C 145.175781 53.761719 146.746094 55.839844 150.234375 55.839844 C 155.011719 55.839844 158.589844 52.039062 158.589844 45.339844 C 158.589844 38.5625 154.90625 34.882812 150.21875 34.882812 C 146.640625 34.882812 145.148438 37.039062 144.421875 38.511719 L 144.222656 38.511719 L 144.222656 28.367188 L 139.445312 28.367188 Z M 144.132812 45.316406 C 144.132812 41.359375 145.824219 38.8125 148.898438 38.8125 C 152.082031 38.8125 153.71875 41.527344 153.71875 45.316406 C 153.71875 49.101562 152.054688 51.90625 148.898438 51.90625 C 145.847656 51.90625 144.132812 49.257812 144.132812 45.316406 Z M 144.132812 45.316406 " fill-opacity="1" fill-rule="nonzero"/><path fill="#e24329" d="M 40.148438 37.65625 L 40.101562 37.53125 L 35.457031 25.382812 C 35.359375 25.136719 35.203125 24.945312 34.980469 24.804688 C 34.816406 24.699219 34.636719 24.636719 34.445312 24.617188 C 34.25 24.597656 34.0625 24.621094 33.882812 24.691406 C 33.699219 24.757812 33.542969 24.867188 33.414062 25.007812 C 33.28125 25.152344 33.191406 25.320312 33.136719 25.507812 L 30 35.132812 L 17.304688 35.132812 L 14.167969 25.507812 C 14.117188 25.320312 14.023438 25.152344 13.894531 25.011719 C 13.761719 24.867188 13.605469 24.761719 13.425781 24.691406 C 13.242188 24.621094 13.054688 24.597656 12.863281 24.617188 C 12.667969 24.636719 12.492188 24.699219 12.328125 24.804688 C 12.105469 24.945312 11.945312 25.136719 11.847656 25.382812 L 7.207031 37.535156 L 7.15625 37.65625 C 6.824219 38.53125 6.636719 39.4375 6.597656 40.375 C 6.554688 41.3125 6.664062 42.230469 6.921875 43.132812 C 7.179688 44.035156 7.574219 44.871094 8.105469 45.644531 C 8.632812 46.417969 9.273438 47.085938 10.019531 47.648438 L 10.035156 47.664062 L 10.078125 47.695312 L 17.140625 53.003906 L 20.648438 55.660156 L 22.777344 57.277344 C 23.035156 57.46875 23.324219 57.566406 23.644531 57.566406 C 23.96875 57.566406 24.257812 57.46875 24.511719 57.277344 L 26.644531 55.660156 L 30.148438 53.003906 L 37.265625 47.664062 L 37.285156 47.648438 C 38.03125 47.082031 38.667969 46.414062 39.199219 45.640625 C 39.730469 44.871094 40.121094 44.03125 40.382812 43.132812 C 40.640625 42.230469 40.75 41.3125 40.707031 40.375 C 40.667969 39.4375 40.480469 38.53125 40.148438 37.65625 Z M 40.148438 37.65625 " fill-opacity="1" fill-rule="nonzero"/><path fill="#fc6d26" d="M 40.148438 37.65625 L 40.101562 37.53125 C 37.8125 38.003906 35.730469 38.941406 33.859375 40.347656 L 23.660156 48.082031 L 30.152344 53.003906 L 37.269531 47.664062 L 37.289062 47.648438 C 38.035156 47.082031 38.671875 46.414062 39.203125 45.640625 C 39.730469 44.867188 40.125 44.03125 40.382812 43.128906 C 40.640625 42.230469 40.75 41.308594 40.710938 40.375 C 40.667969 39.4375 40.480469 38.53125 40.148438 37.65625 Z M 40.148438 37.65625 " fill-opacity="1" fill-rule="nonzero"/><path fill="#fca326" d="M 17.140625 53.003906 L 20.648438 55.660156 L 22.777344 57.277344 C 23.035156 57.46875 23.324219 57.566406 23.644531 57.566406 C 23.96875 57.566406 24.257812 57.46875 24.511719 57.277344 L 26.644531 55.660156 L 30.148438 53.003906 L 23.652344 48.082031 Z M 17.140625 53.003906 " fill-opacity="1" fill-rule="nonzero"/><path fill="#fc6d26" d="M 13.449219 40.347656 C 11.578125 38.941406 9.496094 38.003906 7.207031 37.535156 L 7.15625 37.65625 C 6.824219 38.53125 6.636719 39.4375 6.597656 40.375 C 6.554688 41.3125 6.664062 42.230469 6.921875 43.132812 C 7.179688 44.035156 7.574219 44.871094 8.105469 45.644531 C 8.632812 46.417969 9.273438 47.085938 10.019531 47.648438 L 10.035156 47.664062 L 10.078125 47.695312 L 17.140625 53.003906 L 23.640625 48.082031 Z M 13.449219 40.347656 " fill-opacity="1" fill-rule="nonzero"/></svg>