<svg xmlns="http://www.w3.org/2000/svg" xmlns:xlink="http://www.w3.org/1999/xlink" width="220" zoomAndPan="magnify" viewBox="0 0 165 82.499998" height="110" preserveAspectRatio="xMidYMid meet" version="1.0"><defs><clipPath id="da4c42e50b"><path d="M 0.496094 0 L 164.503906 0 L 164.503906 82.003906 L 0.496094 82.003906 Z M 0.496094 0 " clip-rule="nonzero"/></clipPath><clipPath id="9f1ad01d81"><path d="M 63.667969 30.789062 L 93 30.789062 L 93 52 L 63.667969 52 Z M 63.667969 30.789062 " clip-rule="nonzero"/></clipPath><clipPath id="850be3f53d"><path d="M 94 30.789062 L 114 30.789062 L 114 52 L 94 52 Z M 94 30.789062 " clip-rule="nonzero"/></clipPath><clipPath id="71f0449ecf"><path d="M 115 31 L 136 31 L 136 60.101562 L 115 60.101562 Z M 115 31 " clip-rule="nonzero"/></clipPath><clipPath id="19dd267bbb"><path d="M 136 30.789062 L 155.945312 30.789062 L 155.945312 52 L 136 52 Z M 136 30.789062 " clip-rule="nonzero"/></clipPath><clipPath id="4dd32b9fcb"><path d="M 9.269531 14.71875 L 49 14.71875 L 49 67.648438 L 9.269531 67.648438 Z M 9.269531 14.71875 " clip-rule="nonzero"/></clipPath></defs><g clip-path="url(#da4c42e50b)"><path fill="#ffffff" d="M 0.496094 0 L 164.503906 0 L 164.503906 82.003906 L 0.496094 82.003906 Z M 0.496094 0 " fill-opacity="1" fill-rule="nonzero"/></g><g clip-path="url(#9f1ad01d81)"><path fill="#000000" d="M 85.078125 30.789062 C 81.179688 30.789062 79.492188 32.449219 78.761719 33.835938 C 78.695312 33.964844 78.582031 33.96875 78.527344 33.976562 C 78.417969 33.976562 78.324219 33.914062 78.277344 33.816406 C 77.28125 31.78125 75.394531 30.789062 72.511719 30.789062 C 69.632812 30.789062 67.570312 31.699219 66.421875 33.359375 C 66.367188 33.441406 66.269531 33.484375 66.164062 33.464844 C 66.078125 33.453125 65.972656 33.390625 65.9375 33.265625 L 65.417969 31.46875 C 65.34375 31.207031 65.105469 31.027344 64.835938 31.027344 L 64.28125 31.027344 C 63.945312 31.027344 63.667969 31.300781 63.667969 31.640625 L 63.667969 50.960938 C 63.667969 51.300781 63.945312 51.574219 64.28125 51.574219 L 66.339844 51.574219 C 66.675781 51.574219 66.949219 51.300781 66.949219 50.960938 L 66.949219 39.523438 C 66.949219 35.378906 68.308594 33.6875 71.652344 33.6875 C 75.425781 33.6875 76.199219 36.019531 76.199219 39.523438 L 76.199219 50.960938 C 76.199219 51.300781 76.472656 51.574219 76.808594 51.574219 L 78.90625 51.574219 C 79.242188 51.574219 79.519531 51.300781 79.519531 50.960938 L 79.519531 39.523438 C 79.519531 35.378906 80.878906 33.6875 84.21875 33.6875 C 87.941406 33.6875 88.6875 35.917969 88.6875 39.523438 L 88.6875 50.960938 C 88.6875 51.300781 88.960938 51.574219 89.296875 51.574219 L 91.433594 51.574219 C 91.769531 51.574219 92.042969 51.300781 92.042969 50.960938 L 92.042969 39.683594 C 92.042969 35.539062 91.25 30.789062 85.085938 30.789062 Z M 85.078125 30.789062 " fill-opacity="1" fill-rule="nonzero"/></g><g clip-path="url(#850be3f53d)"><path fill="#000000" d="M 104.078125 30.789062 C 96.359375 30.789062 95.339844 34.765625 95.242188 37.761719 C 95.238281 37.925781 95.296875 38.082031 95.410156 38.203125 C 95.523438 38.324219 95.683594 38.390625 95.851562 38.390625 L 97.871094 38.390625 C 98.199219 38.390625 98.464844 38.128906 98.480469 37.792969 C 98.574219 35.664062 99.316406 33.492188 104.117188 33.492188 C 108.914062 33.492188 110.101562 34.660156 110.222656 38.492188 C 110.230469 38.632812 110.121094 38.757812 109.976562 38.777344 L 103.074219 39.597656 C 98.035156 40.195312 94.679688 41.445312 94.679688 45.648438 C 94.679688 49.507812 97.632812 51.816406 102.582031 51.816406 C 106.035156 51.816406 109.027344 50.558594 110.582031 48.449219 C 110.671875 48.335938 110.792969 48.3125 110.882812 48.339844 C 110.992188 48.367188 111.066406 48.449219 111.085938 48.566406 L 111.464844 51.058594 C 111.511719 51.363281 111.765625 51.578125 112.066406 51.578125 L 112.894531 51.578125 C 113.230469 51.578125 113.503906 51.304688 113.503906 50.964844 L 113.503906 39.800781 C 113.503906 35.054688 112.78125 30.792969 104.074219 30.792969 Z M 110.234375 41.65625 L 110.234375 42.527344 C 110.234375 46.527344 107.480469 49.113281 103.214844 49.113281 C 99.90625 49.113281 98.078125 47.867188 98.078125 45.605469 C 98.078125 43.679688 99.511719 42.796875 103.550781 42.253906 L 109.917969 41.375 C 109.917969 41.375 109.945312 41.375 109.960938 41.375 C 110.023438 41.375 110.085938 41.398438 110.140625 41.445312 C 110.203125 41.5 110.238281 41.574219 110.238281 41.65625 Z M 110.234375 41.65625 " fill-opacity="1" fill-rule="nonzero"/></g><g clip-path="url(#71f0449ecf)"><path fill="#000000" d="M 126.246094 48.871094 C 120.542969 48 119.320312 47.71875 119.320312 46.667969 C 119.320312 46.15625 119.539062 45.542969 121.257812 45.339844 C 121.289062 45.339844 121.320312 45.339844 121.351562 45.339844 L 121.707031 45.410156 C 122.660156 45.601562 123.847656 45.84375 125.402344 45.84375 C 131.648438 45.84375 134.4375 43.625 134.4375 38.648438 C 134.4375 36.273438 133.804688 34.652344 132.511719 33.691406 C 132.417969 33.621094 132.378906 33.515625 132.40625 33.398438 C 132.433594 33.289062 132.515625 33.210938 132.625 33.195312 L 134.324219 32.914062 C 134.621094 32.867188 134.832031 32.613281 134.832031 32.308594 L 134.832031 31.632812 C 134.832031 31.296875 134.558594 31.019531 134.222656 31.019531 L 125.910156 31.019531 C 123.039062 31.019531 116.320312 31.019531 116.320312 38.257812 C 116.320312 40.589844 117.039062 42.347656 118.460938 43.492188 C 118.539062 43.554688 118.574219 43.648438 118.558594 43.746094 C 118.542969 43.847656 118.476562 43.925781 118.378906 43.960938 C 116.804688 44.535156 116.003906 45.554688 116.003906 46.980469 C 116.003906 50.03125 119.570312 50.621094 124.089844 51.355469 C 124.644531 51.449219 125.21875 51.542969 125.796875 51.640625 C 130.46875 52.453125 132.214844 52.761719 132.214844 54.476562 C 132.214844 56.355469 130.003906 57.347656 125.824219 57.347656 C 120.007812 57.347656 119.0625 55.234375 118.902344 53.160156 C 118.882812 52.851562 118.613281 52.605469 118.296875 52.605469 L 116.195312 52.605469 C 116.027344 52.605469 115.863281 52.675781 115.75 52.800781 C 115.632812 52.921875 115.574219 53.082031 115.585938 53.246094 C 115.855469 57.972656 118.9375 60.085938 125.585938 60.085938 C 128.601562 60.085938 135.605469 59.519531 135.605469 54.273438 C 135.605469 50.535156 131.898438 49.699219 126.234375 48.855469 Z M 125.355469 33.765625 C 130.070312 33.765625 131.039062 35.59375 131.039062 38.339844 C 131.039062 41.867188 129.390625 43.304688 125.355469 43.304688 C 122.402344 43.304688 119.671875 42.714844 119.671875 38.414062 C 119.671875 35.625 120.640625 33.765625 125.355469 33.765625 Z M 125.355469 33.765625 " fill-opacity="1" fill-rule="nonzero"/></g><g clip-path="url(#19dd267bbb)"><path fill="#000000" d="M 146.164062 30.789062 C 139.765625 30.789062 136.378906 34.425781 136.378906 41.300781 C 136.378906 48.175781 139.65625 51.808594 146.125 51.808594 C 152.589844 51.808594 155.949219 48.273438 155.949219 41.300781 C 155.949219 34.328125 152.5625 30.789062 146.164062 30.789062 Z M 152.632812 41.300781 C 152.632812 46.574219 150.566406 49.027344 146.125 49.027344 C 141.683594 49.027344 139.691406 46.570312 139.691406 41.300781 C 139.691406 36.03125 141.75 33.652344 146.164062 33.652344 C 150.578125 33.652344 152.632812 36.082031 152.632812 41.300781 Z M 152.632812 41.300781 " fill-opacity="1" fill-rule="nonzero"/></g><g clip-path="url(#4dd32b9fcb)"><path fill="#000000" d="M 37.277344 36.976562 C 33.984375 37.941406 23.46875 37.945312 20.15625 36.976562 C 22.367188 39.816406 25.339844 42.039062 28.328125 44.09375 C 25.621094 44.722656 16.101562 43.464844 13.472656 41.699219 C 14.007812 43.972656 17.648438 48.707031 19.550781 50.105469 C 23.492188 48.300781 27 45.71875 28.707031 44.207031 C 28.707031 44.207031 28.707031 44.203125 28.707031 44.199219 C 28.707031 44.199219 28.707031 44.199219 28.710938 44.199219 C 28.710938 44.199219 28.710938 44.199219 28.714844 44.199219 C 28.714844 44.199219 28.714844 44.207031 28.714844 44.207031 C 30.421875 45.71875 33.929688 48.300781 37.875 50.105469 C 39.777344 48.707031 43.414062 43.972656 43.949219 41.699219 C 41.320312 43.464844 31.800781 44.722656 29.097656 44.09375 C 32.082031 42.042969 35.0625 39.816406 37.269531 36.976562 Z M 37.8125 50.15625 C 32.15625 51.785156 25.277344 51.785156 19.621094 50.15625 C 21.761719 53.109375 27.121094 55.832031 28.707031 56.800781 L 28.714844 56.800781 C 28.714844 56.800781 28.726562 56.800781 28.726562 56.800781 C 30.3125 55.832031 35.675781 53.113281 37.8125 50.15625 Z M 28.710938 56.804688 Z M 28.710938 56.804688 C 24.125 56.5 18.816406 56.449219 14.535156 54.480469 C 16.085938 57.222656 18.148438 59.542969 21.074219 61.734375 C 23.433594 60.296875 26.515625 58.742188 28.707031 56.816406 C 28.707031 56.816406 28.707031 56.808594 28.707031 56.804688 Z M 36.347656 61.824219 C 31.996094 63.132812 25.445312 63.136719 21.082031 61.824219 C 22.554688 63.878906 26.558594 66.621094 28.714844 67.609375 C 30.871094 66.621094 34.875 63.886719 36.347656 61.824219 Z M 28.714844 67.621094 C 25.476562 67.890625 20.710938 66.039062 17.742188 64.691406 C 18.894531 63.953125 20.191406 63.210938 20.980469 61.824219 C 18.128906 61.082031 14.3125 60.242188 11.960938 58.183594 C 12.941406 57.066406 13.90625 55.988281 14.5 54.480469 C 12.960938 54.171875 10.855469 53.238281 10.003906 52.664062 C 9.410156 51.890625 9.085938 47.5 9.390625 46.371094 C 10.257812 45.589844 12.214844 43.808594 13.453125 41.6875 C 12.179688 41.347656 11.070312 40.925781 9.902344 40.34375 C 9.980469 38.050781 10.65625 36.183594 11.625 34.148438 C 12.210938 32.839844 15.964844 30.675781 17.15625 29.699219 C 16.226562 29.238281 14.535156 28.738281 13.882812 28.320312 C 14.34375 27.300781 15.550781 24.777344 16.863281 23.882812 C 17.9375 23.425781 19.949219 22.722656 22.074219 20.96875 C 21.789062 20.898438 20.203125 20.445312 19.703125 19.84375 C 21.417969 17.753906 23.195312 15.734375 25.976562 14.71875 C 25.789062 15.164062 25.402344 16.992188 25.878906 17.777344 C 26.777344 17.234375 27.71875 15.3125 28.71875 14.875 L 28.71875 14.894531 C 29.714844 15.347656 30.660156 17.238281 31.554688 17.777344 C 32.03125 16.996094 31.640625 15.164062 31.457031 14.71875 C 34.242188 15.734375 36.011719 17.761719 37.730469 19.84375 C 37.226562 20.441406 35.640625 20.898438 35.359375 20.96875 C 37.484375 22.722656 39.496094 23.425781 40.570312 23.882812 C 41.886719 24.777344 43.089844 27.304688 43.546875 28.320312 C 42.894531 28.738281 41.207031 29.238281 40.277344 29.699219 C 41.464844 30.679688 45.222656 32.839844 45.808594 34.148438 C 46.777344 36.183594 47.453125 38.050781 47.535156 40.34375 C 46.367188 40.925781 45.261719 41.347656 43.984375 41.6875 C 45.222656 43.808594 47.179688 45.585938 48.046875 46.371094 C 48.351562 47.5 48.023438 51.890625 47.433594 52.664062 C 46.578125 53.234375 44.476562 54.164062 42.9375 54.480469 C 43.527344 55.988281 44.492188 57.074219 45.46875 58.183594 C 43.117188 60.238281 39.304688 61.082031 36.449219 61.824219 C 37.242188 63.210938 38.535156 63.953125 39.683594 64.691406 C 36.714844 66.039062 31.949219 67.890625 28.710938 67.621094 Z M 31.496094 17.875 C 29.105469 18.511719 28.328125 18.511719 25.9375 17.875 C 26.511719 19.105469 27.574219 20.929688 28.527344 22.109375 C 26.8125 22.1875 23.859375 21.949219 22.148438 21 C 21.539062 22.855469 22.402344 24.628906 22.84375 26.050781 C 24.699219 25 27.019531 23.5625 28.710938 22.023438 C 28.710938 22.023438 28.710938 22.011719 28.710938 22.011719 C 28.710938 22.011719 28.710938 22.011719 28.714844 22.011719 C 28.714844 22.011719 28.714844 22.011719 28.71875 22.011719 C 28.71875 22.011719 28.71875 22.023438 28.71875 22.023438 C 30.417969 23.5625 32.734375 25 34.589844 26.050781 C 35.027344 24.628906 35.894531 22.855469 35.285156 21 C 33.574219 21.949219 30.621094 22.1875 28.90625 22.109375 C 29.855469 20.929688 30.921875 19.105469 31.496094 17.875 Z M 34.523438 26.148438 C 30.972656 27.0625 26.457031 27.066406 22.910156 26.148438 C 23.792969 28.785156 26.324219 30.488281 28.714844 31.714844 C 31.105469 30.488281 33.640625 28.78125 34.523438 26.148438 Z M 28.613281 31.820312 C 25.753906 32.273438 19.460938 31.34375 17.277344 29.75 C 17.664062 32.464844 19.128906 35.097656 20.097656 36.796875 C 23.21875 35.59375 26.242188 33.816406 28.613281 31.855469 Z M 28.71875 56.804688 Z M 28.71875 56.804688 C 33.308594 56.5 38.617188 56.449219 42.898438 54.480469 C 41.347656 57.222656 39.28125 59.542969 36.355469 61.734375 C 33.996094 60.296875 30.917969 58.742188 28.726562 56.816406 C 28.726562 56.816406 28.726562 56.808594 28.726562 56.804688 Z M 28.816406 31.820312 C 31.675781 32.273438 37.96875 31.34375 40.152344 29.75 C 39.769531 32.464844 38.300781 35.097656 37.332031 36.796875 C 34.214844 35.59375 31.191406 33.816406 28.8125 31.855469 L 28.8125 31.824219 Z M 14.507812 54.441406 C 14.507812 54.441406 14.503906 54.441406 14.507812 54.441406 Z M 14.507812 54.441406 C 13.199219 53.710938 9.84375 47.554688 9.507812 46.460938 C 12.4375 47.882812 16.207031 49.722656 19.449219 50.125 C 19.25 50.265625 14.816406 54.453125 14.507812 54.441406 Z M 13.464844 41.660156 C 12.867188 40.402344 11.300781 35.453125 11.628906 34.140625 C 13.8125 35.460938 17.25 36.417969 20 36.9375 C 17.976562 38.613281 15.730469 40.226562 13.464844 41.660156 Z M 17.25 29.601562 C 17.171875 29.132812 16.484375 24.261719 16.867188 23.894531 C 18.347656 25.160156 21.078125 25.636719 22.808594 26.140625 C 21.472656 27.1875 19.582031 28.726562 17.25 29.601562 Z M 28.714844 56.808594 L 28.71875 56.808594 Z M 22.152344 20.929688 C 22.132812 19.195312 22.472656 17.832031 22.941406 16.589844 C 23.804688 17.128906 25.175781 17.609375 25.851562 17.839844 C 24.660156 18.839844 23.597656 20.171875 22.15625 20.929688 Z M 42.925781 54.441406 C 42.925781 54.441406 42.929688 54.441406 42.925781 54.441406 Z M 42.925781 54.441406 C 44.234375 53.710938 47.585938 47.554688 47.921875 46.460938 C 44.992188 47.882812 41.222656 49.722656 37.984375 50.125 C 38.183594 50.265625 42.613281 54.453125 42.925781 54.441406 Z M 43.96875 41.660156 C 44.5625 40.402344 46.132812 35.453125 45.804688 34.140625 C 43.621094 35.460938 40.179688 36.417969 37.4375 36.9375 C 39.460938 38.613281 41.710938 40.226562 43.972656 41.660156 Z M 40.179688 29.601562 C 40.265625 29.132812 40.949219 24.261719 40.566406 23.894531 C 39.085938 25.160156 36.351562 25.636719 34.625 26.140625 C 35.957031 27.1875 37.851562 28.726562 40.175781 29.601562 Z M 35.277344 20.929688 C 35.304688 19.195312 34.960938 17.832031 34.496094 16.589844 C 33.625 17.128906 32.261719 17.609375 31.585938 17.839844 C 32.78125 18.839844 33.84375 20.171875 35.277344 20.929688 Z M 35.277344 20.929688 " fill-opacity="1" fill-rule="evenodd"/></g></svg>