<svg xmlns="http://www.w3.org/2000/svg" xmlns:xlink="http://www.w3.org/1999/xlink" width="220" zoomAndPan="magnify" viewBox="0 0 165 82.499998" height="110" preserveAspectRatio="xMidYMid meet" version="1.0"><defs><clipPath id="96cd403f69"><path d="M 0.496094 0 L 164.503906 0 L 164.503906 82.003906 L 0.496094 82.003906 Z M 0.496094 0 " clip-rule="nonzero"/></clipPath><clipPath id="8d322525b3"><path d="M 56 27 L 156.300781 27 L 156.300781 55 L 56 55 Z M 56 27 " clip-rule="nonzero"/></clipPath><clipPath id="e565f8361e"><path d="M 8.699219 30 L 23 30 L 23 61.949219 L 8.699219 61.949219 Z M 8.699219 30 " clip-rule="nonzero"/></clipPath><clipPath id="2cf7b7947d"><path d="M 8.699219 38 L 28 38 L 28 50 L 8.699219 50 Z M 8.699219 38 " clip-rule="nonzero"/></clipPath><clipPath id="f97401cd44"><path d="M 32 20.203125 L 47 20.203125 L 47 53 L 32 53 Z M 32 20.203125 " clip-rule="nonzero"/></clipPath><clipPath id="1f009ea319"><path d="M 8.699219 27 L 41 27 L 41 50 L 8.699219 50 Z M 8.699219 27 " clip-rule="nonzero"/></clipPath></defs><g clip-path="url(#96cd403f69)"><path fill="#ffffff" d="M 0.496094 0 L 164.503906 0 L 164.503906 82.003906 L 0.496094 82.003906 Z M 0.496094 0 " fill-opacity="1" fill-rule="nonzero"/></g><g clip-path="url(#8d322525b3)"><path fill="#000000" d="M 142.671875 33.199219 C 142.15625 33.1875 141.644531 33.230469 141.136719 33.328125 C 140.628906 33.421875 140.136719 33.566406 139.660156 33.765625 C 139.179688 33.960938 138.726562 34.199219 138.296875 34.488281 C 137.867188 34.777344 137.472656 35.105469 137.109375 35.472656 C 136.746094 35.839844 136.425781 36.242188 136.140625 36.675781 C 135.859375 37.109375 135.625 37.570312 135.433594 38.050781 C 135.246094 38.53125 135.105469 39.027344 135.015625 39.539062 C 134.925781 40.050781 134.890625 40.5625 134.902344 41.082031 C 134.886719 41.601562 134.921875 42.117188 135.011719 42.628906 C 135.101562 43.140625 135.238281 43.636719 135.425781 44.121094 C 135.617188 44.605469 135.851562 45.066406 136.132812 45.5 C 136.414062 45.9375 136.738281 46.339844 137.101562 46.710938 C 137.464844 47.078125 137.859375 47.410156 138.289062 47.699219 C 138.71875 47.988281 139.175781 48.230469 139.652344 48.429688 C 140.132812 48.625 140.625 48.769531 141.132812 48.867188 C 141.644531 48.964844 142.15625 49.007812 142.671875 49 C 143.78125 49.019531 144.84375 48.800781 145.859375 48.347656 C 146.871094 47.894531 147.742188 47.246094 148.46875 46.40625 L 147.144531 45.261719 C 146.851562 45 146.507812 44.847656 146.117188 44.808594 C 145.726562 44.765625 145.359375 44.847656 145.019531 45.042969 C 144.289062 45.476562 143.503906 45.6875 142.65625 45.675781 C 142.195312 45.691406 141.742188 45.636719 141.296875 45.507812 C 140.855469 45.378906 140.441406 45.183594 140.0625 44.917969 C 139.683594 44.652344 139.355469 44.335938 139.082031 43.960938 C 138.804688 43.589844 138.59375 43.183594 138.453125 42.742188 L 150.363281 42.742188 L 150.363281 41.097656 C 150.382812 37.269531 147.675781 33.199219 142.671875 33.199219 Z M 138.464844 39.4375 C 138.605469 38.996094 138.816406 38.589844 139.09375 38.21875 C 139.371094 37.847656 139.699219 37.53125 140.078125 37.265625 C 140.457031 37 140.871094 36.804688 141.316406 36.675781 C 141.757812 36.546875 142.210938 36.492188 142.671875 36.511719 C 143.132812 36.492188 143.582031 36.546875 144.019531 36.675781 C 144.460938 36.804688 144.867188 37 145.242188 37.265625 C 145.617188 37.53125 145.941406 37.847656 146.210938 38.21875 C 146.476562 38.59375 146.679688 39 146.816406 39.4375 Z M 63.972656 33.199219 C 62.347656 33.175781 60.859375 33.621094 59.511719 34.539062 L 59.511719 33.21875 L 58.085938 33.21875 C 57.835938 33.21875 57.597656 33.269531 57.367188 33.363281 C 57.136719 33.460938 56.933594 33.597656 56.757812 33.773438 C 56.582031 33.953125 56.445312 34.15625 56.351562 34.386719 C 56.253906 34.617188 56.207031 34.859375 56.207031 35.109375 L 56.207031 49.050781 L 57.628906 49.050781 C 57.878906 49.050781 58.117188 49.003906 58.347656 48.910156 C 58.578125 48.8125 58.78125 48.675781 58.957031 48.5 C 59.132812 48.324219 59.269531 48.121094 59.367188 47.890625 C 59.460938 47.660156 59.511719 47.417969 59.511719 47.167969 L 59.511719 41.082031 C 59.511719 38.390625 61.34375 36.5 63.972656 36.5 C 64.308594 36.5 64.636719 36.53125 64.964844 36.59375 C 65.371094 36.683594 65.765625 36.648438 66.144531 36.484375 C 66.527344 36.320312 66.828125 36.0625 67.042969 35.707031 L 67.910156 34.195312 C 66.6875 33.503906 65.375 33.171875 63.972656 33.199219 Z M 131.964844 33.164062 C 131.578125 33.164062 131.226562 33.269531 130.90625 33.488281 C 130.585938 33.707031 130.355469 34 130.214844 34.359375 L 126.449219 44.023438 L 122.226562 33.164062 L 118.234375 33.164062 L 124.457031 49.105469 L 122.242188 54.761719 L 124.929688 54.761719 C 125.316406 54.761719 125.667969 54.652344 125.988281 54.433594 C 126.304688 54.214844 126.535156 53.925781 126.675781 53.5625 L 134.664062 33.164062 Z M 154.882812 27.449219 C 154.632812 27.449219 154.394531 27.496094 154.164062 27.589844 C 153.929688 27.6875 153.726562 27.820312 153.550781 28 C 153.375 28.175781 153.238281 28.378906 153.144531 28.609375 C 153.046875 28.839844 153 29.082031 153 29.332031 L 153 49.035156 L 154.425781 49.035156 C 154.675781 49.035156 154.917969 48.988281 155.148438 48.890625 C 155.378906 48.792969 155.582031 48.65625 155.757812 48.476562 C 155.933594 48.296875 156.070312 48.09375 156.164062 47.859375 C 156.257812 47.628906 156.304688 47.386719 156.300781 47.132812 L 156.300781 27.449219 Z M 80.363281 34.582031 C 79.777344 34.175781 79.144531 33.855469 78.46875 33.621094 C 77.792969 33.390625 77.097656 33.25 76.386719 33.207031 C 75.671875 33.167969 74.964844 33.222656 74.269531 33.375 C 73.570312 33.527344 72.90625 33.769531 72.273438 34.105469 C 71.640625 34.4375 71.066406 34.851562 70.546875 35.347656 C 70.03125 35.839844 69.585938 36.394531 69.21875 37.007812 C 68.851562 37.625 68.574219 38.277344 68.386719 38.96875 C 68.199219 39.660156 68.105469 40.363281 68.109375 41.082031 C 68.101562 41.796875 68.191406 42.496094 68.375 43.1875 C 68.558594 43.878906 68.832031 44.53125 69.195312 45.144531 C 69.558594 45.761719 69.996094 46.316406 70.507812 46.808594 C 71.019531 47.304688 71.589844 47.722656 72.21875 48.0625 C 72.84375 48.398438 73.503906 48.648438 74.199219 48.804688 C 74.890625 48.964844 75.59375 49.023438 76.304688 48.992188 C 77.015625 48.957031 77.707031 48.824219 78.382812 48.601562 C 79.058594 48.375 79.691406 48.066406 80.285156 47.667969 L 80.285156 49.050781 L 81.722656 49.050781 C 81.96875 49.050781 82.210938 49.003906 82.441406 48.910156 C 82.667969 48.8125 82.871094 48.675781 83.046875 48.5 C 83.222656 48.324219 83.359375 48.121094 83.457031 47.890625 C 83.550781 47.660156 83.597656 47.417969 83.597656 47.167969 L 83.597656 33.21875 L 82.175781 33.21875 C 81.757812 33.21875 81.378906 33.34375 81.042969 33.597656 C 80.707031 33.847656 80.480469 34.175781 80.363281 34.582031 Z M 79.183594 44.269531 C 78.765625 44.746094 78.265625 45.105469 77.6875 45.359375 C 77.109375 45.609375 76.503906 45.726562 75.875 45.707031 C 73.242188 45.707031 71.414062 43.820312 71.414062 41.128906 C 71.414062 38.4375 73.242188 36.546875 75.875 36.546875 C 78.902344 36.546875 80.285156 38.921875 80.285156 41.128906 C 80.300781 42.308594 79.933594 43.359375 79.183594 44.269531 Z M 112.460938 34.582031 C 111.871094 34.175781 111.238281 33.855469 110.566406 33.621094 C 109.890625 33.390625 109.195312 33.25 108.480469 33.210938 C 107.769531 33.167969 107.0625 33.222656 106.363281 33.375 C 105.667969 33.527344 105 33.769531 104.371094 34.105469 C 103.738281 34.4375 103.164062 34.851562 102.644531 35.347656 C 102.125 35.839844 101.683594 36.394531 101.316406 37.007812 C 100.949219 37.625 100.671875 38.277344 100.484375 38.96875 C 100.292969 39.660156 100.203125 40.363281 100.207031 41.082031 C 100.199219 41.796875 100.289062 42.496094 100.472656 43.1875 C 100.65625 43.878906 100.929688 44.53125 101.292969 45.144531 C 101.652344 45.761719 102.089844 46.316406 102.605469 46.808594 C 103.117188 47.304688 103.6875 47.722656 104.3125 48.0625 C 104.941406 48.398438 105.601562 48.648438 106.292969 48.804688 C 106.988281 48.964844 107.691406 49.023438 108.402344 48.992188 C 109.113281 48.957031 109.804688 48.824219 110.480469 48.601562 C 111.15625 48.375 111.789062 48.066406 112.378906 47.667969 L 112.378906 49.050781 L 113.800781 49.050781 C 114.050781 49.050781 114.289062 49.003906 114.519531 48.910156 C 114.75 48.8125 114.953125 48.675781 115.128906 48.5 C 115.304688 48.324219 115.4375 48.121094 115.535156 47.890625 C 115.628906 47.660156 115.675781 47.417969 115.675781 47.167969 L 115.675781 33.21875 L 114.238281 33.21875 C 113.824219 33.226562 113.453125 33.355469 113.125 33.605469 C 112.796875 33.859375 112.574219 34.183594 112.460938 34.582031 Z M 111.277344 44.269531 C 110.859375 44.746094 110.363281 45.105469 109.785156 45.359375 C 109.203125 45.609375 108.601562 45.726562 107.96875 45.707031 C 105.34375 45.707031 103.507812 43.820312 103.507812 41.128906 C 103.507812 38.4375 105.34375 36.546875 107.96875 36.546875 C 111 36.546875 112.378906 38.921875 112.378906 41.128906 C 112.394531 42.308594 112.027344 43.359375 111.277344 44.269531 Z M 91.800781 42.800781 C 92.984375 42.890625 94.386719 43.222656 94.386719 44.277344 C 94.386719 45.332031 92.867188 45.75 91.566406 45.75 C 90.875 45.753906 90.214844 45.613281 89.582031 45.324219 C 89.226562 45.144531 88.855469 45.085938 88.460938 45.140625 C 88.066406 45.199219 87.726562 45.367188 87.4375 45.640625 L 86.160156 46.886719 C 86.875 47.605469 87.703125 48.152344 88.644531 48.527344 C 89.582031 48.90625 90.558594 49.082031 91.566406 49.058594 C 95.230469 49.058594 97.695312 47.132812 97.695312 44.269531 C 97.695312 41.550781 95.589844 39.765625 92.058594 39.488281 C 90.878906 39.398438 89.46875 39.066406 89.46875 38.019531 C 89.46875 36.96875 90.984375 36.546875 92.285156 36.546875 C 92.980469 36.535156 93.640625 36.679688 94.273438 36.96875 C 94.628906 37.148438 95 37.210938 95.394531 37.152344 C 95.789062 37.09375 96.128906 36.929688 96.417969 36.65625 L 97.695312 35.414062 C 96.980469 34.695312 96.152344 34.148438 95.214844 33.769531 C 94.273438 33.390625 93.296875 33.214844 92.285156 33.238281 C 88.625 33.238281 86.164062 35.160156 86.164062 38.023438 C 86.164062 40.738281 88.277344 42.523438 91.808594 42.800781 " fill-opacity="1" fill-rule="nonzero"/></g><g clip-path="url(#e565f8361e)"><path fill="#005de4" d="M 22.542969 55.105469 C 22.546875 55.058594 22.546875 55.015625 22.542969 54.972656 L 22.542969 37.601562 L 22.507812 37.601562 C 22.507812 37.398438 22.542969 37.195312 22.542969 36.988281 C 22.519531 36.546875 22.457031 36.109375 22.351562 35.679688 C 22.25 35.25 22.105469 34.835938 21.921875 34.433594 C 21.738281 34.03125 21.515625 33.652344 21.261719 33.289062 C 21.003906 32.929688 20.71875 32.597656 20.398438 32.292969 C 20.078125 31.988281 19.734375 31.71875 19.363281 31.476562 C 18.992188 31.238281 18.601562 31.039062 18.191406 30.875 C 17.785156 30.710938 17.363281 30.585938 16.929688 30.503906 C 16.496094 30.417969 16.0625 30.375 15.621094 30.375 C 15.179688 30.375 14.742188 30.417969 14.308594 30.503906 C 13.878906 30.585938 13.457031 30.710938 13.046875 30.875 C 12.636719 31.039062 12.25 31.238281 11.878906 31.476562 C 11.507812 31.71875 11.160156 31.988281 10.84375 32.292969 C 10.523438 32.597656 10.234375 32.929688 9.980469 33.289062 C 9.722656 33.652344 9.503906 34.03125 9.320312 34.433594 C 9.136719 34.835938 8.992188 35.25 8.886719 35.679688 C 8.78125 36.109375 8.71875 36.546875 8.699219 36.988281 C 8.699219 37.195312 8.699219 37.398438 8.726562 37.601562 L 8.699219 37.601562 L 8.699219 54.972656 C 8.699219 55.429688 8.742188 55.882812 8.832031 56.328125 C 8.917969 56.777344 9.050781 57.210938 9.222656 57.632812 C 9.398438 58.054688 9.613281 58.457031 9.863281 58.835938 C 10.117188 59.214844 10.402344 59.566406 10.726562 59.890625 C 11.046875 60.210938 11.398438 60.5 11.773438 60.753906 C 12.152344 61.007812 12.550781 61.222656 12.972656 61.398438 C 13.390625 61.574219 13.824219 61.707031 14.273438 61.792969 C 14.71875 61.882812 15.167969 61.929688 15.625 61.929688 L 22.554688 61.929688 L 22.554688 55.105469 Z M 22.542969 55.105469 " fill-opacity="1" fill-rule="nonzero"/></g><g clip-path="url(#2cf7b7947d)"><path fill="#0056bb" d="M 8.699219 49.058594 C 8.699219 49.058594 10.226562 44.550781 16.757812 44.550781 L 27.277344 44.550781 L 27.277344 38.367188 L 8.699219 38.4375 Z M 8.699219 49.058594 " fill-opacity="1" fill-rule="nonzero"/></g><g clip-path="url(#f97401cd44)"><path fill="#00c09b" d="M 46.785156 27.175781 C 46.785156 26.71875 46.738281 26.265625 46.652344 25.816406 C 46.5625 25.371094 46.429688 24.933594 46.257812 24.515625 C 46.082031 24.09375 45.871094 23.691406 45.617188 23.3125 C 45.363281 22.933594 45.078125 22.582031 44.753906 22.257812 C 44.433594 21.9375 44.082031 21.648438 43.707031 21.394531 C 43.328125 21.140625 42.929688 20.925781 42.507812 20.75 C 42.089844 20.578125 41.65625 20.445312 41.210938 20.355469 C 40.761719 20.265625 40.3125 20.222656 39.859375 20.222656 L 32.933594 20.222656 L 32.933594 44.546875 L 32.960938 44.546875 C 32.960938 44.753906 32.933594 44.957031 32.933594 45.164062 C 32.933594 45.621094 32.976562 46.074219 33.066406 46.519531 C 33.152344 46.96875 33.285156 47.402344 33.460938 47.824219 C 33.632812 48.246094 33.847656 48.648438 34.097656 49.027344 C 34.351562 49.40625 34.640625 49.757812 34.960938 50.078125 C 35.28125 50.402344 35.632812 50.691406 36.011719 50.945312 C 36.386719 51.199219 36.789062 51.410156 37.207031 51.585938 C 37.628906 51.761719 38.0625 51.894531 38.507812 51.980469 C 38.953125 52.070312 39.402344 52.117188 39.859375 52.117188 C 40.3125 52.117188 40.761719 52.070312 41.210938 51.980469 C 41.65625 51.894531 42.089844 51.761719 42.507812 51.585938 C 42.929688 51.410156 43.328125 51.199219 43.707031 50.945312 C 44.082031 50.691406 44.433594 50.402344 44.753906 50.078125 C 45.078125 49.757812 45.363281 49.40625 45.617188 49.027344 C 45.871094 48.648438 46.082031 48.246094 46.257812 47.824219 C 46.429688 47.402344 46.5625 46.96875 46.652344 46.519531 C 46.738281 46.074219 46.785156 45.621094 46.785156 45.164062 C 46.785156 44.957031 46.785156 44.753906 46.753906 44.546875 L 46.785156 44.546875 Z M 46.785156 27.175781 " fill-opacity="1" fill-rule="nonzero"/></g><path fill="#ffffff" d="M 39.152344 48.027344 C 39.152344 48.164062 39.125 48.296875 39.074219 48.421875 C 39.019531 48.546875 38.945312 48.660156 38.851562 48.757812 C 38.753906 48.851562 38.640625 48.925781 38.515625 48.980469 C 38.390625 49.03125 38.261719 49.058594 38.125 49.058594 C 37.988281 49.058594 37.855469 49.03125 37.730469 48.980469 C 37.605469 48.925781 37.492188 48.851562 37.398438 48.757812 C 37.300781 48.660156 37.226562 48.546875 37.175781 48.421875 C 37.121094 48.296875 37.097656 48.164062 37.097656 48.027344 C 37.097656 47.890625 37.121094 47.757812 37.175781 47.632812 C 37.226562 47.507812 37.300781 47.394531 37.398438 47.296875 C 37.492188 47.203125 37.605469 47.128906 37.730469 47.074219 C 37.855469 47.023438 37.988281 46.996094 38.125 46.996094 C 38.261719 46.996094 38.390625 47.023438 38.515625 47.074219 C 38.640625 47.128906 38.753906 47.203125 38.851562 47.296875 C 38.945312 47.394531 39.019531 47.507812 39.074219 47.632812 C 39.125 47.757812 39.152344 47.890625 39.152344 48.027344 Z M 39.152344 48.027344 " fill-opacity="1" fill-rule="nonzero"/><path fill="#ffffff" d="M 32.234375 48.027344 C 32.234375 48.164062 32.210938 48.296875 32.15625 48.421875 C 32.105469 48.546875 32.03125 48.660156 31.933594 48.757812 C 31.839844 48.851562 31.726562 48.925781 31.601562 48.980469 C 31.476562 49.03125 31.34375 49.058594 31.210938 49.058594 C 31.074219 49.058594 30.941406 49.03125 30.816406 48.980469 C 30.691406 48.925781 30.578125 48.851562 30.484375 48.757812 C 30.386719 48.660156 30.3125 48.546875 30.261719 48.421875 C 30.207031 48.296875 30.183594 48.164062 30.183594 48.027344 C 30.183594 47.890625 30.207031 47.757812 30.261719 47.632812 C 30.3125 47.507812 30.386719 47.394531 30.484375 47.296875 C 30.578125 47.203125 30.691406 47.128906 30.816406 47.074219 C 30.941406 47.023438 31.074219 46.996094 31.210938 46.996094 C 31.34375 46.996094 31.476562 47.023438 31.601562 47.074219 C 31.726562 47.128906 31.839844 47.203125 31.933594 47.296875 C 32.03125 47.394531 32.105469 47.507812 32.15625 47.632812 C 32.210938 47.757812 32.234375 47.890625 32.234375 48.027344 Z M 32.234375 48.027344 " fill-opacity="1" fill-rule="nonzero"/><path fill="#ffffff" d="M 25.328125 48.027344 C 25.328125 48.164062 25.300781 48.296875 25.25 48.421875 C 25.195312 48.546875 25.121094 48.660156 25.027344 48.757812 C 24.929688 48.851562 24.820312 48.925781 24.695312 48.980469 C 24.566406 49.03125 24.4375 49.058594 24.300781 49.058594 C 24.164062 49.058594 24.035156 49.03125 23.90625 48.980469 C 23.78125 48.925781 23.671875 48.851562 23.574219 48.757812 C 23.476562 48.660156 23.402344 48.546875 23.351562 48.421875 C 23.300781 48.296875 23.273438 48.164062 23.273438 48.027344 C 23.273438 47.890625 23.300781 47.757812 23.351562 47.632812 C 23.402344 47.507812 23.476562 47.394531 23.574219 47.296875 C 23.671875 47.203125 23.78125 47.128906 23.90625 47.074219 C 24.035156 47.023438 24.164062 46.996094 24.300781 46.996094 C 24.4375 46.996094 24.566406 47.023438 24.695312 47.074219 C 24.820312 47.128906 24.929688 47.203125 25.027344 47.296875 C 25.121094 47.394531 25.195312 47.507812 25.25 47.632812 C 25.300781 47.757812 25.328125 47.890625 25.328125 48.027344 Z M 25.328125 48.027344 " fill-opacity="1" fill-rule="nonzero"/><path fill="#00b491" d="M 46.800781 33.089844 C 46.800781 33.089844 45.265625 37.601562 38.734375 37.601562 L 28.21875 37.601562 L 28.21875 43.785156 L 46.800781 43.699219 Z M 46.800781 33.089844 " fill-opacity="1" fill-rule="nonzero"/><path fill="#05d5a3" d="M 38.226562 41.074219 L 22.558594 41.074219 C 22.097656 41.0625 21.636719 41.09375 21.179688 41.175781 C 20.726562 41.253906 20.28125 41.378906 19.847656 41.546875 C 19.417969 41.714844 19.007812 41.925781 18.617188 42.175781 C 18.226562 42.425781 17.867188 42.714844 17.535156 43.039062 C 17.203125 43.363281 16.90625 43.71875 16.644531 44.101562 C 16.382812 44.484375 16.164062 44.890625 15.980469 45.316406 C 15.800781 45.746094 15.664062 46.1875 15.574219 46.644531 C 15.480469 47.097656 15.4375 47.558594 15.4375 48.023438 C 15.4375 48.488281 15.480469 48.949219 15.574219 49.40625 C 15.664062 49.859375 15.800781 50.300781 15.980469 50.730469 C 16.164062 51.160156 16.382812 51.5625 16.644531 51.949219 C 16.90625 52.332031 17.203125 52.683594 17.535156 53.007812 C 17.867188 53.332031 18.226562 53.621094 18.617188 53.871094 C 19.007812 54.125 19.417969 54.332031 19.847656 54.503906 C 20.28125 54.671875 20.726562 54.792969 21.179688 54.875 C 21.636719 54.953125 22.097656 54.984375 22.558594 54.972656 L 39.859375 54.972656 C 40.3125 54.972656 40.761719 54.929688 41.210938 54.839844 C 41.65625 54.75 42.089844 54.621094 42.507812 54.445312 C 42.929688 54.269531 43.328125 54.054688 43.707031 53.804688 C 44.085938 53.550781 44.433594 53.261719 44.757812 52.9375 C 45.078125 52.617188 45.367188 52.265625 45.617188 51.882812 C 45.871094 51.503906 46.085938 51.105469 46.257812 50.683594 C 46.433594 50.261719 46.5625 49.824219 46.652344 49.378906 C 46.738281 48.929688 46.785156 48.476562 46.785156 48.019531 L 46.785156 32.523438 C 46.777344 33.082031 46.714844 33.636719 46.601562 34.1875 C 46.484375 34.734375 46.316406 35.269531 46.101562 35.785156 C 45.882812 36.300781 45.617188 36.792969 45.304688 37.257812 C 44.992188 37.722656 44.636719 38.152344 44.242188 38.546875 C 43.84375 38.945312 43.414062 39.296875 42.949219 39.609375 C 42.484375 39.921875 41.996094 40.1875 41.480469 40.402344 C 40.964844 40.621094 40.433594 40.785156 39.886719 40.898438 C 39.339844 41.011719 38.785156 41.070312 38.226562 41.074219 Z M 38.226562 41.074219 " fill-opacity="1" fill-rule="nonzero"/><g clip-path="url(#1f009ea319)"><path fill="#3679ff" d="M 32.925781 27.179688 L 15.625 27.179688 C 15.167969 27.179688 14.71875 27.222656 14.273438 27.3125 C 13.828125 27.402344 13.394531 27.53125 12.972656 27.707031 C 12.554688 27.882812 12.152344 28.09375 11.777344 28.347656 C 11.398438 28.601562 11.046875 28.890625 10.726562 29.210938 C 10.40625 29.535156 10.117188 29.886719 9.863281 30.265625 C 9.613281 30.644531 9.398438 31.042969 9.222656 31.464844 C 9.050781 31.886719 8.917969 32.320312 8.832031 32.769531 C 8.742188 33.21875 8.699219 33.667969 8.699219 34.125 L 8.699219 49.628906 C 8.703125 49.070312 8.765625 48.515625 8.878906 47.964844 C 8.992188 47.414062 9.160156 46.882812 9.378906 46.367188 C 9.59375 45.847656 9.859375 45.359375 10.171875 44.890625 C 10.488281 44.425781 10.839844 43.996094 11.238281 43.601562 C 11.632812 43.203125 12.0625 42.851562 12.527344 42.539062 C 12.992188 42.226562 13.484375 41.960938 14 41.746094 C 14.515625 41.53125 15.046875 41.363281 15.59375 41.253906 C 16.140625 41.140625 16.695312 41.082031 17.253906 41.074219 L 32.925781 41.074219 C 33.390625 41.089844 33.847656 41.054688 34.304688 40.976562 C 34.761719 40.898438 35.207031 40.773438 35.636719 40.605469 C 36.070312 40.4375 36.480469 40.226562 36.867188 39.976562 C 37.257812 39.722656 37.621094 39.4375 37.953125 39.113281 C 38.285156 38.789062 38.582031 38.433594 38.84375 38.050781 C 39.101562 37.667969 39.324219 37.261719 39.503906 36.832031 C 39.683594 36.40625 39.820312 35.964844 39.914062 35.507812 C 40.003906 35.054688 40.050781 34.59375 40.050781 34.128906 C 40.050781 33.664062 40.003906 33.203125 39.914062 32.746094 C 39.820312 32.292969 39.683594 31.851562 39.503906 31.421875 C 39.324219 30.992188 39.101562 30.585938 38.84375 30.203125 C 38.582031 29.820312 38.285156 29.464844 37.953125 29.144531 C 37.621094 28.820312 37.257812 28.53125 36.867188 28.28125 C 36.480469 28.027344 36.070312 27.820312 35.636719 27.648438 C 35.207031 27.480469 34.761719 27.359375 34.304688 27.277344 C 33.847656 27.199219 33.390625 27.167969 32.925781 27.179688 Z M 32.925781 27.179688 " fill-opacity="1" fill-rule="nonzero"/></g><path fill="#ffffff" d="M 32.21875 34.164062 C 32.21875 34.300781 32.191406 34.433594 32.140625 34.558594 C 32.089844 34.6875 32.015625 34.796875 31.917969 34.894531 C 31.820312 34.992188 31.710938 35.066406 31.585938 35.117188 C 31.460938 35.167969 31.328125 35.195312 31.191406 35.195312 C 31.054688 35.195312 30.925781 35.167969 30.800781 35.117188 C 30.671875 35.066406 30.5625 34.992188 30.464844 34.894531 C 30.371094 34.796875 30.296875 34.6875 30.242188 34.558594 C 30.191406 34.433594 30.164062 34.300781 30.164062 34.164062 C 30.164062 34.027344 30.191406 33.898438 30.242188 33.769531 C 30.296875 33.644531 30.371094 33.53125 30.464844 33.4375 C 30.5625 33.339844 30.671875 33.265625 30.800781 33.210938 C 30.925781 33.160156 31.054688 33.132812 31.191406 33.132812 C 31.328125 33.132812 31.460938 33.160156 31.585938 33.210938 C 31.710938 33.265625 31.820312 33.339844 31.917969 33.4375 C 32.015625 33.53125 32.089844 33.644531 32.140625 33.769531 C 32.191406 33.898438 32.21875 34.027344 32.21875 34.164062 Z M 32.21875 34.164062 " fill-opacity="1" fill-rule="nonzero"/><path fill="#ffffff" d="M 25.308594 34.164062 C 25.308594 34.300781 25.285156 34.433594 25.230469 34.558594 C 25.179688 34.6875 25.105469 34.796875 25.007812 34.894531 C 24.914062 34.992188 24.800781 35.066406 24.675781 35.117188 C 24.550781 35.167969 24.417969 35.195312 24.285156 35.195312 C 24.148438 35.195312 24.015625 35.167969 23.890625 35.117188 C 23.765625 35.066406 23.652344 34.992188 23.558594 34.894531 C 23.460938 34.796875 23.386719 34.6875 23.335938 34.558594 C 23.28125 34.433594 23.257812 34.300781 23.257812 34.164062 C 23.257812 34.027344 23.28125 33.898438 23.335938 33.769531 C 23.386719 33.644531 23.460938 33.53125 23.558594 33.4375 C 23.652344 33.339844 23.765625 33.265625 23.890625 33.210938 C 24.015625 33.160156 24.148438 33.132812 24.285156 33.132812 C 24.417969 33.132812 24.550781 33.160156 24.675781 33.210938 C 24.800781 33.265625 24.914062 33.339844 25.007812 33.4375 C 25.105469 33.53125 25.179688 33.644531 25.230469 33.769531 C 25.285156 33.898438 25.308594 34.027344 25.308594 34.164062 Z M 25.308594 34.164062 " fill-opacity="1" fill-rule="nonzero"/><path fill="#ffffff" d="M 18.402344 34.164062 C 18.402344 34.300781 18.375 34.433594 18.324219 34.558594 C 18.269531 34.6875 18.195312 34.796875 18.101562 34.894531 C 18.003906 34.992188 17.894531 35.066406 17.765625 35.117188 C 17.640625 35.167969 17.511719 35.195312 17.375 35.195312 C 17.238281 35.195312 17.109375 35.167969 16.980469 35.117188 C 16.855469 35.066406 16.746094 34.992188 16.648438 34.894531 C 16.550781 34.796875 16.476562 34.6875 16.425781 34.558594 C 16.375 34.433594 16.347656 34.300781 16.347656 34.164062 C 16.347656 34.027344 16.375 33.898438 16.425781 33.769531 C 16.476562 33.644531 16.550781 33.53125 16.648438 33.4375 C 16.746094 33.339844 16.855469 33.265625 16.980469 33.210938 C 17.109375 33.160156 17.238281 33.132812 17.375 33.132812 C 17.511719 33.132812 17.640625 33.160156 17.765625 33.210938 C 17.894531 33.265625 18.003906 33.339844 18.101562 33.4375 C 18.195312 33.53125 18.269531 33.644531 18.324219 33.769531 C 18.375 33.898438 18.402344 34.027344 18.402344 34.164062 Z M 18.402344 34.164062 " fill-opacity="1" fill-rule="nonzero"/><path fill="#ffffff" d="M 25.332031 47.980469 C 25.332031 48.117188 25.308594 48.25 25.253906 48.375 C 25.203125 48.503906 25.128906 48.613281 25.03125 48.710938 C 24.9375 48.808594 24.824219 48.882812 24.699219 48.933594 C 24.574219 48.984375 24.441406 49.011719 24.304688 49.011719 C 24.171875 49.011719 24.039062 48.984375 23.914062 48.933594 C 23.789062 48.882812 23.675781 48.808594 23.578125 48.710938 C 23.484375 48.613281 23.410156 48.503906 23.359375 48.375 C 23.304688 48.25 23.277344 48.117188 23.277344 47.980469 C 23.277344 47.84375 23.304688 47.714844 23.359375 47.585938 C 23.410156 47.460938 23.484375 47.347656 23.578125 47.253906 C 23.675781 47.15625 23.789062 47.082031 23.914062 47.027344 C 24.039062 46.976562 24.171875 46.949219 24.304688 46.949219 C 24.441406 46.949219 24.574219 46.976562 24.699219 47.027344 C 24.824219 47.082031 24.9375 47.15625 25.03125 47.253906 C 25.128906 47.347656 25.203125 47.460938 25.253906 47.585938 C 25.308594 47.714844 25.332031 47.84375 25.332031 47.980469 Z M 25.332031 47.980469 " fill-opacity="1" fill-rule="nonzero"/><path fill="#ffffff" d="M 32.242188 47.980469 C 32.242188 48.117188 32.214844 48.25 32.164062 48.375 C 32.113281 48.503906 32.039062 48.613281 31.941406 48.710938 C 31.84375 48.808594 31.734375 48.882812 31.609375 48.933594 C 31.480469 48.984375 31.351562 49.011719 31.214844 49.011719 C 31.078125 49.011719 30.949219 48.984375 30.820312 48.933594 C 30.695312 48.882812 30.585938 48.808594 30.488281 48.710938 C 30.390625 48.613281 30.316406 48.503906 30.265625 48.375 C 30.214844 48.25 30.1875 48.117188 30.1875 47.980469 C 30.1875 47.84375 30.214844 47.714844 30.265625 47.585938 C 30.316406 47.460938 30.390625 47.347656 30.488281 47.253906 C 30.585938 47.15625 30.695312 47.082031 30.820312 47.027344 C 30.949219 46.976562 31.078125 46.949219 31.214844 46.949219 C 31.351562 46.949219 31.480469 46.976562 31.609375 47.027344 C 31.734375 47.082031 31.84375 47.15625 31.941406 47.253906 C 32.039062 47.347656 32.113281 47.460938 32.164062 47.585938 C 32.214844 47.714844 32.242188 47.84375 32.242188 47.980469 Z M 32.242188 47.980469 " fill-opacity="1" fill-rule="nonzero"/><path fill="#ffffff" d="M 39.152344 47.980469 C 39.152344 48.117188 39.125 48.25 39.074219 48.375 C 39.019531 48.503906 38.945312 48.613281 38.851562 48.710938 C 38.753906 48.808594 38.640625 48.882812 38.515625 48.933594 C 38.390625 48.984375 38.261719 49.011719 38.125 49.011719 C 37.988281 49.011719 37.855469 48.984375 37.730469 48.933594 C 37.605469 48.882812 37.492188 48.808594 37.398438 48.710938 C 37.300781 48.613281 37.226562 48.503906 37.175781 48.375 C 37.121094 48.25 37.097656 48.117188 37.097656 47.980469 C 37.097656 47.84375 37.121094 47.714844 37.175781 47.585938 C 37.226562 47.460938 37.300781 47.347656 37.398438 47.253906 C 37.492188 47.15625 37.605469 47.082031 37.730469 47.027344 C 37.855469 46.976562 37.988281 46.949219 38.125 46.949219 C 38.261719 46.949219 38.390625 46.976562 38.515625 47.027344 C 38.640625 47.082031 38.753906 47.15625 38.851562 47.253906 C 38.945312 47.347656 39.019531 47.460938 39.074219 47.585938 C 39.125 47.714844 39.152344 47.84375 39.152344 47.980469 Z M 39.152344 47.980469 " fill-opacity="1" fill-rule="nonzero"/></svg>